<svg width="40" height="40" xmlns="http://www.w3.org/2000/svg">
 <g>
  <title>Layer 1</title>
  <metadata transform="matrix(0.017777779632144552,0,0,0.017777779632144552,0,0) ">Svg Vector Icons : http://www.onlinewebfonts.com/icon</metadata>
   <g stroke="null" transform="matrix(0.039456148128857296,0,0,0.0374986990521275,13.563655720017158,5.657344276212343) " id="svg_4">
    <g stroke="null" id="svg_5" transform="translate(0,513) scale(0.1,-0.1) ">
     <path style="fill:#ffffff;" stroke="null" id="svg_6" d="m3447.205228,5974.19942c-99.5,-323.3 -209.3,-542.9 -366.8,-731.5c-174.1,-205.2 -288,-290.1 -389.6,-290.1c-103.6,0 -172,66.3 -288.1,275.6c-196.9,362.7 -453.8,470.4 -706.7,294.3c-238.3,-165.8 -346.1,-574 -198.9,-764.7c82.9,-109.8 192.7,-157.5 412.4,-180.3c242.5,-24.9 310.8,-47.7 379.2,-128.5c49.7,-58 53.9,-76.7 43.5,-182.4c-6.2,-72.5 -31.1,-159.6 -66.3,-221.7c-29,-56 -225.9,-281.8 -435.2,-503.6c-209.3,-221.7 -381.3,-408.2 -383.4,-416.5c0,-29 323.3,-402 505.7,-582.3c375.1,-371 451.8,-362.7 509.8,45.6c26.9,192.7 76.7,304.6 176.2,402c267.3,261.1 702.5,246.6 951.2,-29c132.6,-147.1 186.5,-296.3 186.5,-516c2.1,-151.3 -6.2,-190.7 -53.9,-281.8c-87,-163.7 -194.8,-248.7 -458,-358.5c-223.8,-93.3 -145.1,-288 192.7,-484.9c211.4,-122.3 708.7,-232.1 986.4,-217.6l122.3,6.2l1019.6,1440.3c559.5,791.6 1019.6,1450.6 1019.6,1461c0,14.5 -2571.8,1860.9 -3042.2,2182.1c-37.3,26.8 -43.5,14.4 -116,-217.7z"/>
     <path style="fill:#ffffff;" stroke="null" id="svg_7" d="m-3190.394772,2741.29942l6.2,-1838.1l97.4,-37.3c180.3,-66.3 501.5,-122.3 783.3,-134.7c437.3,-18.6 478.7,20.7 348.1,339.9c-62.2,145.1 -68.4,182.4 -68.4,368.9c0,186.5 6.2,219.7 58,327.4c99.5,201 273.5,288.1 572,286c569.9,-4.2 810.3,-381.3 613.4,-967.8c-70.5,-209.3 -68.4,-265.3 16.6,-350.2c70.5,-70.4 184.4,-114 302.6,-114c37.3,0 201,33.2 362.7,72.5c159.6,39.4 362.7,78.7 447.6,89.1l155.4,14.5l24.9,165.8c47.7,335.7 72.5,702.5 64.2,928.4c-14.5,379.2 -74.6,431 -312.9,279.8c-209.3,-132.7 -501.5,-178.3 -667.3,-101.6c-107.8,49.7 -203.1,153.3 -263.2,281.8c-66.3,149.2 -68.4,522.2 -2.1,702.5c145.1,387.5 393.7,437.3 938.8,186.5c114,-51.8 223.8,-91.2 244.5,-87c72.5,14.5 97.4,114 95.3,410.3c-2.1,315 -41.4,580.2 -128.5,837.2l-56,167.9l-1819.5,6.2l-1817.3,4.2l4.2,-1838.2z"/>
     <path style="fill:#ffffff;" stroke="null" id="svg_8" d="m-1497.394772,1846.09942c-292.2,-58 -373,-327.4 -228,-744c87,-248.7 78.8,-339.9 -43.5,-472.5c-122.3,-132.6 -223.8,-163.7 -524.3,-163.7c-283.9,2.1 -493.2,47.7 -750.2,165.8l-151.2,70.5l0,-1865.1l0,-1863l1834,0l1834,0l0,78.7c0,41.4 29,267.3 62.2,499.4c118.1,804.1 78.7,918 -246.6,717c-147.1,-91.2 -228,-116 -389.6,-118.1c-198.9,-2.1 -327.4,51.8 -472.5,199c-143,143 -176.1,223.8 -176.1,424.8c0,304.6 207.2,648.6 449.7,739.8c138.8,53.9 321.2,31.1 484.9,-60.1c356.4,-196.9 453.8,-132.6 453.8,296.3c-2.1,261.1 -35.2,489.1 -101.5,688c-70.5,209.3 -43.5,198.9 -364.7,132.6c-356.4,-72.5 -636.2,-116.1 -758.5,-116.1c-128.5,0 -294.3,51.8 -370.9,116.1c-143,120.2 -157.5,244.5 -60.1,507.7c147.1,400 58,696.3 -232.1,762.6c-101.6,25 -141,25 -248.8,4.3z"/>
     <path style="fill:#ffffff;" stroke="null" id="svg_9" d="m2257.705228,1800.49942c-114,-22.8 -223.8,-107.8 -279.8,-217.6c-33.1,-60.1 -45.6,-128.5 -49.7,-269.4c-10.4,-246.6 16.6,-306.7 188.6,-441.4c143,-111.9 159.6,-136.8 159.6,-230c0,-80.8 -97.4,-159.6 -221.7,-178.2c-211.4,-31.1 -872.4,33.1 -1199.9,116c-89.1,22.8 -161.6,39.4 -165.8,35.2c-2.1,-2.1 18.7,-82.9 45.6,-180.3c103.6,-350.2 140.9,-814.4 89.1,-1061c-58,-265.3 -333.6,-356.4 -580.2,-192.7c-45.6,29 -143,68.4 -215.5,87c-339.9,82.9 -530.5,-76.7 -530.5,-451.8c0,-172 41.4,-306.7 118.1,-375.1c114,-101.5 370.9,-80.8 650.7,53.9c169.9,80.8 215.5,89.1 317.1,45.6c172,-70.4 248.7,-265.3 244.5,-621.7c0,-232.1 -56,-617.5 -114,-810.3c-18.6,-56 -33.2,-109.8 -33.2,-118.1c0,-10.4 835.1,-16.6 1854.7,-16.6l1854.7,0l0,1896.2c0,1042.4 -6.2,1896.2 -12.4,1896.2c-8.3,0 -80.8,-43.5 -161.7,-97.4c-261.1,-172 -673.5,-317 -905.6,-317c-51.8,0 -194.8,18.7 -321.2,41.4c-279.8,51.8 -308.8,76.7 -292.2,250.8c8.3,62.2 47.7,203.1 89.1,310.8c128.5,321.2 107.8,584.4 -58,737.7c-101.5,95.4 -304.7,141 -470.4,107.8z"/>
    </g>
  </g>
 </g>
</svg>